<svg width="45" height="42" viewBox="0 0 45 42" fill="none" xmlns="http://www.w3.org/2000/svg">
<g clip-path="url(#clip0_321_1163)">
<path d="M3.39609 0H41.7445C45.0633 1.27313 41.7867 4.15406 45 5.74219V8.07844L43.6711 9.25969C43.5023 9.40844 43.418 9.59 43.418 9.80437C43.418 18.4144 43.418 27.0244 43.418 35.6344C43.418 36.8812 44.0016 37.3997 45 38.0625V40.6875C44.7562 41.3875 44.332 41.825 43.7273 42H1.20234C0.602344 41.755 0.201562 41.3547 0 40.7991V38.1741L1.33594 36.8813C1.40782 36.814 1.44827 36.7244 1.44844 36.6319L1.43437 9.58781C1.43437 9.42594 1.37344 9.29031 1.25156 9.18094L0 8.01281V5.93906C2.94609 3.97688 0.140625 0.951563 3.39609 0ZM41.9906 1.97531C41.9906 1.8413 41.9336 1.71277 41.8321 1.618C41.7305 1.52324 41.5928 1.47 41.4492 1.47H3.53672C3.39313 1.47 3.25542 1.52324 3.15389 1.618C3.10361 1.66493 3.06373 1.72063 3.03652 1.78194C3.00932 1.84325 2.99531 1.90895 2.99531 1.97531V4.41656C2.99531 4.48292 3.00932 4.54863 3.03652 4.60994C3.06373 4.67124 3.10361 4.72695 3.15389 4.77387C3.20416 4.8208 3.26385 4.85802 3.32953 4.88341C3.39522 4.9088 3.46562 4.92188 3.53672 4.92188H41.4492C41.5928 4.92188 41.7305 4.86864 41.8321 4.77387C41.9336 4.67911 41.9906 4.55058 41.9906 4.41656V1.97531ZM43.6008 6.78562C43.6008 6.63942 43.5386 6.49921 43.4278 6.39583C43.317 6.29245 43.1668 6.23438 43.0102 6.23438H2.00391C1.84726 6.23438 1.69703 6.29245 1.58627 6.39583C1.47551 6.49921 1.41328 6.63942 1.41328 6.78562V7.16625C1.41328 7.31245 1.47551 7.45266 1.58627 7.55604C1.69703 7.65942 1.84726 7.7175 2.00391 7.7175H43.0102C43.1668 7.7175 43.317 7.65942 43.4278 7.55604C43.5386 7.45266 43.6008 7.31245 43.6008 7.16625V6.78562ZM5.49141 9.04313L3.46641 9.05625C3.33773 9.05625 3.21433 9.10396 3.12335 9.18888C3.03236 9.27379 2.98125 9.38897 2.98125 9.50906L2.98828 9.68625C2.99065 10.0792 3.13637 10.4555 3.39345 10.7323C3.65052 11.0092 3.99793 11.164 4.35938 11.1628H4.62656C4.80586 11.1622 4.98321 11.1232 5.14848 11.048C5.31375 10.9728 5.46369 10.8629 5.58973 10.7245C5.71577 10.5862 5.81543 10.4221 5.88301 10.2417C5.95059 10.0613 5.98477 9.86807 5.98359 9.67313L5.97656 9.49594C5.97656 9.43647 5.96401 9.37759 5.93963 9.32265C5.91525 9.26772 5.87951 9.2178 5.83446 9.17575C5.78941 9.1337 5.73593 9.10035 5.67707 9.07759C5.61821 9.05484 5.55512 9.04313 5.49141 9.04313ZM10.0266 9.05625L7.90312 9.09562C7.83973 9.09647 7.77715 9.10907 7.71902 9.1327C7.66089 9.15633 7.60838 9.19052 7.56454 9.23327C7.5207 9.27602 7.48641 9.32648 7.46366 9.38171C7.44091 9.43694 7.43016 9.49585 7.43203 9.555L7.43906 9.68625C7.44897 10.0849 7.61277 10.4639 7.89469 10.7405C8.17661 11.0172 8.55375 11.169 8.94375 11.1628H9.07031C9.26445 11.1589 9.45579 11.1159 9.63336 11.0362C9.81093 10.9566 9.97125 10.8418 10.1051 10.6986C10.239 10.5553 10.3439 10.3864 10.4136 10.2014C10.4834 10.0164 10.5167 9.81907 10.5117 9.62062V9.48938C10.508 9.37217 10.4551 9.26102 10.3643 9.17997C10.2735 9.09892 10.1522 9.05448 10.0266 9.05625ZM14.5828 9.06938L12.4734 9.05625C12.3497 9.05624 12.2309 9.10166 12.1428 9.1827C12.0546 9.26375 12.0042 9.3739 12.0023 9.48938V9.62719C12.0004 9.82546 12.0367 10.0221 12.1092 10.206C12.1816 10.3898 12.2888 10.5572 12.4246 10.6986C12.5604 10.84 12.7222 10.9526 12.9007 11.03C13.0792 11.1074 13.2709 11.1481 13.4648 11.1497H13.5633C13.9536 11.1511 14.3287 10.9945 14.6067 10.7141C14.8847 10.4337 15.043 10.0524 15.0469 9.65344L15.0539 9.51562C15.0548 9.45733 15.0433 9.39945 15.0201 9.34535C14.9968 9.29124 14.9623 9.24199 14.9184 9.20047C14.8746 9.15894 14.8224 9.12597 14.7647 9.10346C14.7071 9.08096 14.6453 9.06937 14.5828 9.06938ZM18.9984 9.03L16.9734 9.06938C16.9097 9.07023 16.8468 9.08279 16.7883 9.10634C16.7298 9.12989 16.6768 9.16397 16.6324 9.20663C16.588 9.24929 16.5531 9.29969 16.5295 9.35496C16.506 9.41023 16.4944 9.46928 16.4953 9.52875L16.5023 9.73875C16.5108 10.1227 16.6621 10.4882 16.9231 10.7551C17.1841 11.0221 17.5334 11.1687 17.8945 11.1628H18.1617C18.3412 11.16 18.5182 11.1195 18.6826 11.0437C18.8469 10.9679 18.9954 10.8582 19.1195 10.721C19.2437 10.5839 19.3409 10.4219 19.4058 10.2443C19.4707 10.0667 19.5019 9.87707 19.4977 9.68625L19.4906 9.47625C19.4897 9.41678 19.4762 9.35807 19.451 9.30346C19.4258 9.24885 19.3893 9.19941 19.3436 9.15797C19.2979 9.11653 19.2439 9.0839 19.1846 9.06194C19.1254 9.03999 19.0622 9.02913 18.9984 9.03ZM23.5195 9.03H21.5227C21.4589 9.03086 21.396 9.04342 21.3375 9.06697C21.279 9.09052 21.226 9.12459 21.1816 9.16725C21.1372 9.20991 21.1023 9.26031 21.0788 9.31558C21.0552 9.37085 21.0436 9.42991 21.0445 9.48938V9.67969C21.0465 10.073 21.1958 10.4494 21.4595 10.7263C21.7232 11.0032 22.0798 11.1579 22.4508 11.1562H22.6195C22.8033 11.1554 22.9851 11.1163 23.1546 11.041C23.324 10.9657 23.4777 10.8557 23.607 10.7174C23.7363 10.579 23.8386 10.415 23.908 10.2347C23.9775 10.0544 24.0127 9.86137 24.0117 9.66656V9.47625C24.0108 9.41678 23.9973 9.35807 23.9721 9.30346C23.9469 9.24885 23.9104 9.19941 23.8647 9.15797C23.819 9.11653 23.765 9.0839 23.7057 9.06194C23.6465 9.03999 23.5832 9.02913 23.5195 9.03ZM27.9562 9.04313L25.9172 9.14156C25.7916 9.14835 25.6739 9.20106 25.5897 9.28828C25.5054 9.3755 25.4614 9.4902 25.4672 9.6075V9.69938C25.478 9.90113 25.5241 10.0992 25.6028 10.2824C25.6816 10.4655 25.7913 10.6301 25.9259 10.7666C26.0604 10.9032 26.2171 11.0091 26.3869 11.0782C26.5568 11.1473 26.7364 11.1783 26.9156 11.1694L27.1828 11.1562C27.362 11.1479 27.5373 11.0998 27.6987 11.0148C27.8601 10.9297 28.0043 10.8094 28.1232 10.6606C28.2421 10.5119 28.3332 10.3377 28.3914 10.1479C28.4497 9.95822 28.4738 9.75672 28.4625 9.555L28.4555 9.46313C28.4482 9.3459 28.3917 9.23606 28.2983 9.15744C28.2048 9.07882 28.0819 9.03775 27.9562 9.04313ZM32.5266 9.05625L30.3891 9.09562C30.3272 9.09732 30.2663 9.11039 30.2098 9.13407C30.1534 9.15775 30.1024 9.19158 30.06 9.23363C30.0176 9.27568 29.9844 9.32513 29.9625 9.37915C29.9405 9.43316 29.9302 9.49069 29.932 9.54844V9.67969C29.937 9.87742 29.9802 10.0724 30.0593 10.2534C30.1383 10.4343 30.2517 10.5978 30.3928 10.7344C30.5339 10.8709 30.7 10.9779 30.8815 11.0492C31.0631 11.1205 31.2565 11.1546 31.4508 11.1497H31.5773C31.9683 11.14 32.3388 10.9729 32.6077 10.685C32.8766 10.3971 33.0219 10.012 33.0117 9.61406V9.48281C33.0099 9.42506 32.9959 9.36822 32.9705 9.31552C32.9452 9.26282 32.9089 9.21531 32.8639 9.17569C32.8188 9.13608 32.7658 9.10514 32.7079 9.08464C32.6501 9.06415 32.5884 9.0545 32.5266 9.05625ZM37.0828 9.06938L34.9734 9.05625C34.8497 9.05624 34.7309 9.10166 34.6428 9.1827C34.5546 9.26375 34.5042 9.3739 34.5023 9.48938V9.62719C34.5004 9.82546 34.5367 10.0221 34.6092 10.206C34.6816 10.3898 34.7888 10.5572 34.9246 10.6986C35.0604 10.84 35.2222 10.9526 35.4007 11.03C35.5792 11.1074 35.7709 11.1481 35.9648 11.1497H36.0633C36.4536 11.1511 36.8287 10.9945 37.1067 10.7141C37.3847 10.4337 37.543 10.0524 37.5469 9.65344L37.5539 9.51562C37.5548 9.45733 37.5433 9.39945 37.5201 9.34535C37.4968 9.29124 37.4623 9.24199 37.4184 9.20047C37.3746 9.15894 37.3223 9.12597 37.2647 9.10346C37.2071 9.08096 37.1453 9.06937 37.0828 9.06938ZM41.4773 9.03L39.4945 9.06938C39.4308 9.07107 39.3681 9.08448 39.3099 9.10882C39.2517 9.13316 39.1993 9.16796 39.1555 9.21123C39.1118 9.2545 39.0776 9.30539 39.0549 9.361C39.0323 9.41661 39.0216 9.47584 39.0234 9.53531L39.0305 9.82406C39.0404 10.1873 39.1912 10.5324 39.4496 10.7834C39.708 11.0344 40.0529 11.1708 40.4086 11.1628L40.6758 11.1562C41.0314 11.1484 41.3688 10.9969 41.6139 10.7348C41.8591 10.4727 41.9921 10.1216 41.9836 9.75844L41.9766 9.46969C41.9747 9.41022 41.9604 9.35166 41.9343 9.29737C41.9082 9.24308 41.8709 9.19412 41.8246 9.15329C41.7782 9.11245 41.7237 9.08055 41.6641 9.05939C41.6045 9.03824 41.5411 9.02825 41.4773 9.03ZM13.1766 12.5737L11.3766 11.9503C11.2749 11.9139 11.1655 11.9008 11.0577 11.9122C10.95 11.9237 10.8471 11.9592 10.7578 12.0159C9.45938 12.8209 8.20781 12.775 7.00313 11.8781C6.91904 11.8153 6.81428 11.7812 6.70581 11.7812C6.59735 11.7812 6.49152 11.8153 6.40547 11.8781C5.50078 12.5475 4.47656 12.6919 3.33281 12.3112C3.29422 12.2973 3.25255 12.2924 3.21145 12.297C3.17036 12.3015 3.13109 12.3154 3.09709 12.3375C3.06308 12.3595 3.03538 12.3889 3.01642 12.4233C2.99745 12.4576 2.98779 12.4958 2.98828 12.5344V36.7303C2.98828 37.0497 3.15703 37.1919 3.49453 37.1569L4.21172 37.0913C4.45078 37.0694 4.57031 36.9447 4.57031 36.7172V16.7344C4.57031 16.3863 4.71847 16.0524 4.98219 15.8063C5.24592 15.5602 5.6036 15.4219 5.97656 15.4219H13.5352C13.9081 15.4219 14.2658 15.5602 14.5295 15.8063C14.7932 16.0524 14.9414 16.3863 14.9414 16.7344V36.75C14.9414 36.837 14.9784 36.9205 15.0444 36.982C15.1103 37.0436 15.1997 37.0781 15.293 37.0781H41.6602C41.7534 37.0781 41.8428 37.0436 41.9087 36.982C41.9747 36.9205 42.0117 36.837 42.0117 36.75V12.7837C42.0117 12.46 41.843 12.3375 41.5055 12.4163C40.4367 12.6569 39.4922 12.4972 38.6719 11.9372C38.4281 11.7709 38.1844 11.7709 37.9406 11.9372C36.675 12.7947 35.4023 12.8012 34.1227 11.9569C34.014 11.8842 33.8837 11.8451 33.75 11.8451C33.6163 11.8451 33.486 11.8842 33.3773 11.9569C32.0977 12.8012 30.8227 12.7925 29.5523 11.9306C29.3414 11.7863 29.1281 11.7863 28.9125 11.9306C27.5906 12.8144 26.2992 12.7947 25.0383 11.8716C24.95 11.8077 24.8418 11.773 24.7309 11.773C24.62 11.773 24.5129 11.8077 24.4266 11.8716C23.1328 12.8341 21.8297 12.8319 20.5172 11.865C20.4268 11.7999 20.316 11.765 20.2034 11.7662C20.0908 11.7674 19.9832 11.8046 19.8984 11.8716C18.7125 12.7728 17.4961 12.8187 16.2492 12.0094C16.0523 11.8781 15.8414 11.8519 15.6164 11.9306L13.8094 12.5737C13.5984 12.6481 13.3875 12.6481 13.1766 12.5737ZM13.5281 17.22C13.5281 17.0947 13.4748 16.9745 13.3798 16.8859C13.2849 16.7973 13.1561 16.7475 13.0219 16.7475H6.48281C6.34855 16.7475 6.21978 16.7973 6.12484 16.8859C6.0299 16.9745 5.97656 17.0947 5.97656 17.22V36.6056C5.97656 36.7309 6.0299 36.8511 6.12484 36.9397C6.21978 37.0283 6.34855 37.0781 6.48281 37.0781H13.0219C13.1561 37.0781 13.2849 37.0283 13.3798 36.9397C13.4748 36.8511 13.5281 36.7309 13.5281 36.6056V17.22ZM43.5656 39.0797C43.5656 38.9387 43.5056 38.8035 43.3988 38.7038C43.292 38.6041 43.1471 38.5481 42.9961 38.5481H2.00391C1.85286 38.5481 1.70799 38.6041 1.60119 38.7038C1.49438 38.8035 1.43437 38.9387 1.43437 39.0797V40.1559C1.43437 40.2969 1.49438 40.4321 1.60119 40.5318C1.70799 40.6315 1.85286 40.6875 2.00391 40.6875H42.9961C43.1471 40.6875 43.292 40.6315 43.3988 40.5318C43.5056 40.4321 43.5656 40.2969 43.5656 40.1559V39.0797Z" fill="#3C3B3B"/>
<path d="M40.4223 32.2347C40.4216 32.6106 40.2609 32.9709 39.9756 33.2363C39.6903 33.5016 39.3037 33.6503 38.9009 33.6497L18.0322 33.6157C17.8327 33.6154 17.6353 33.5784 17.4512 33.5068C17.2671 33.4353 17.0998 33.3306 16.9591 33.1988C16.8183 33.0669 16.7067 32.9104 16.6307 32.7383C16.5547 32.5662 16.5158 32.3819 16.5161 32.1957L16.5449 16.8132C16.5456 16.4373 16.7063 16.077 16.9916 15.8116C17.2769 15.5463 17.6634 15.3976 18.0662 15.3982L38.935 15.4322C39.1344 15.4325 39.3318 15.4695 39.516 15.541C39.7001 15.6126 39.8673 15.7173 40.0081 15.8491C40.1489 15.981 40.2605 16.1374 40.3365 16.3095C40.4125 16.4816 40.4514 16.666 40.451 16.8522L40.4223 32.2347ZM39.037 17.2043C39.0371 17.1448 39.0247 17.0859 39.0004 17.0309C38.9761 16.9759 38.9405 16.926 38.8955 16.8838C38.8505 16.8417 38.7971 16.8083 38.7383 16.7854C38.6795 16.7626 38.6164 16.7508 38.5527 16.7507L18.4292 16.7178C18.3655 16.7177 18.3024 16.7294 18.2435 16.752C18.1846 16.7747 18.1311 16.8079 18.0859 16.8499C18.0408 16.8919 18.005 16.9418 17.9805 16.9966C17.956 17.0515 17.9434 17.1104 17.9432 17.1699L17.9161 31.6861C17.916 31.7456 17.9284 31.8045 17.9527 31.8595C17.977 31.9144 18.0126 31.9644 18.0576 32.0065C18.1026 32.0487 18.156 32.0821 18.2148 32.105C18.2736 32.1278 18.3367 32.1396 18.4004 32.1397L38.5239 32.1725C38.5876 32.1726 38.6507 32.161 38.7096 32.1384C38.7685 32.1157 38.822 32.0824 38.8672 32.0405C38.9123 31.9985 38.9481 31.9486 38.9726 31.8937C38.9971 31.8388 39.0097 31.78 39.0099 31.7205L39.037 17.2043Z" fill="#3C3B3B"/>
<path d="M30.4877 25.7381C33.9963 23.5791 37.3221 28.56 33.5041 30.4631C30.8885 31.7691 29.5315 29.3016 28.7229 27.3853C28.7032 27.3399 28.6693 27.3011 28.6256 27.274C28.5819 27.2469 28.5304 27.2328 28.4779 27.2335C28.4254 27.2342 28.3744 27.2497 28.3315 27.278C28.2887 27.3062 28.256 27.3459 28.2377 27.3919C27.3799 29.5444 25.4955 32.2744 22.7745 30.0956C19.8424 27.7463 23.8713 23.4806 26.6065 25.9284C26.716 26.0229 26.8569 26.0796 27.0057 26.0892C27.1545 26.0987 27.3023 26.0604 27.4246 25.9807C27.5469 25.9011 27.6364 25.7847 27.6781 25.6511C27.7199 25.5174 27.7114 25.3745 27.6541 25.2459L24.8135 19.1494C24.7632 19.0376 24.7477 18.9149 24.7688 18.7953C24.79 18.6757 24.8469 18.5641 24.933 18.4734C25.219 18.1803 25.5049 18.1103 25.7909 18.2634C25.9549 18.3509 26.1096 18.5325 26.2549 18.8081C26.9534 20.1906 27.5979 21.5753 28.1885 22.9622C28.2127 23.0191 28.2544 23.0681 28.3085 23.1028C28.3625 23.1375 28.4264 23.1564 28.492 23.1571C28.5576 23.1578 28.622 23.1403 28.6769 23.1068C28.7318 23.0732 28.7747 23.0252 28.8002 22.9688L30.8463 18.5194C30.9053 18.3934 31.011 18.2914 31.1441 18.2324C31.2771 18.1733 31.4286 18.161 31.5705 18.1978C32.0815 18.3334 32.2338 18.6484 32.0276 19.1428C31.1651 21.2209 30.3166 23.1547 29.4823 24.9441C29.4244 25.0705 29.4115 25.211 29.4454 25.3448C29.4794 25.4786 29.5584 25.5988 29.6709 25.6876C29.7833 25.7764 29.9234 25.8293 30.0704 25.8384C30.2174 25.8474 30.3637 25.8123 30.4877 25.7381ZM26.2409 27.9956C26.2409 27.6266 26.0838 27.2728 25.8043 27.0119C25.5247 26.751 25.1456 26.6044 24.7502 26.6044C24.3549 26.6044 23.9758 26.751 23.6962 27.0119C23.4167 27.2728 23.2596 27.6266 23.2596 27.9956C23.2596 28.1783 23.2982 28.3592 23.3731 28.528C23.448 28.6968 23.5578 28.8502 23.6962 28.9794C23.8346 29.1086 23.9989 29.2111 24.1798 29.281C24.3606 29.3509 24.5545 29.3869 24.7502 29.3869C24.946 29.3869 25.1398 29.3509 25.3207 29.281C25.5015 29.2111 25.6658 29.1086 25.8043 28.9794C25.9427 28.8502 26.0525 28.6968 26.1274 28.528C26.2023 28.3592 26.2409 28.1783 26.2409 27.9956ZM33.7151 27.9759C33.7151 27.7958 33.6771 27.6175 33.6032 27.4511C33.5294 27.2847 33.4211 27.1335 33.2847 27.0061C33.1482 26.8787 32.9862 26.7777 32.8079 26.7088C32.6296 26.6399 32.4385 26.6044 32.2455 26.6044C31.8558 26.6044 31.482 26.7489 31.2064 27.0061C30.9308 27.2633 30.776 27.6122 30.776 27.9759C30.776 28.3397 30.9308 28.6886 31.2064 28.9458C31.482 29.203 31.8558 29.3475 32.2455 29.3475C32.4385 29.3475 32.6296 29.312 32.8079 29.2431C32.9862 29.1742 33.1482 29.0731 33.2847 28.9458C33.4211 28.8184 33.5294 28.6672 33.6032 28.5008C33.6771 28.3344 33.7151 28.1561 33.7151 27.9759Z" fill="#3C3B3B"/>
</g>
<defs>
<clipPath id="clip0_321_1163">
<rect width="45" height="42" fill="white"/>
</clipPath>
</defs>
</svg>
